<?xml version="1.0" standalone="no"?>
<!DOCTYPE svg PUBLIC "-//W3C//DTD SVG 20010904//EN"
 "http://www.w3.org/TR/2001/REC-SVG-20010904/DTD/svg10.dtd">
<svg version="1.0" xmlns="http://www.w3.org/2000/svg"
 width="806.000000pt" height="356.000000pt" viewBox="0 0 806.000000 356.000000"
 preserveAspectRatio="xMidYMid meet">

<g transform="translate(0.000000,356.000000) scale(0.100000,-0.100000)"
fill="#000000" stroke="none">
<path d="M890 2276 c-16 -20 -9 -56 13 -70 39 -24 79 44 41 71 -23 17 -39 16
-54 -1z"/>
<path d="M1020 2276 c-16 -20 -9 -56 13 -70 39 -24 79 44 41 71 -23 17 -39 16
-54 -1z"/>
<path d="M1150 2276 c-16 -20 -9 -56 13 -70 39 -24 79 44 41 71 -23 17 -39 16
-54 -1z"/>
<path d="M1055 2124 c-158 -4 -171 -6 -187 -25 -17 -19 -18 -55 -18 -415 0
-381 1 -395 20 -414 20 -20 33 -20 755 -20 722 0 735 0 755 20 19 19 20 33 20
414 0 360 -1 396 -18 415 l-17 22 -570 3 c-314 2 -646 1 -740 0z m-12 -139
c-4 -28 -2 -35 11 -35 9 0 16 8 16 19 0 34 12 51 35 51 22 0 23 -2 14 -32 -5
-18 -9 -34 -9 -35 0 -2 9 -3 20 -3 28 0 25 -28 -2 -32 -27 -4 -39 -48 -14 -48
9 0 16 -8 16 -20 0 -13 -7 -20 -20 -20 -16 0 -20 -7 -20 -35 0 -31 -3 -35 -25
-35 -24 0 -25 2 -19 35 5 28 3 35 -9 35 -10 0 -18 -13 -23 -35 -5 -26 -11 -35
-26 -35 -17 0 -20 5 -16 35 3 24 0 35 -9 35 -21 0 -15 31 7 37 13 3 20 14 20
29 0 17 -6 24 -20 24 -11 0 -20 7 -20 15 0 9 9 15 25 15 22 0 25 4 25 35 0 30
3 35 24 35 23 0 24 -3 19 -35z m1117 3 c0 -11 -7 -18 -20 -18 -17 0 -20 -7
-20 -48 0 -26 -5 -53 -12 -60 -9 -9 -9 -15 0 -24 7 -7 12 -29 12 -50 0 -31 4
-38 20 -38 14 0 20 -7 20 -21 0 -18 -5 -20 -42 -17 l-43 3 -3 53 c-2 35 -8 55
-18 59 -19 7 -18 42 1 49 11 4 15 21 15 58 0 61 8 72 55 72 27 0 35 -4 35 -18z
m128 10 c7 -7 12 -35 12 -64 0 -37 4 -54 15 -58 19 -7 20 -42 1 -49 -10 -4
-16 -24 -18 -59 l-3 -53 -42 -3 c-38 -3 -43 -1 -43 17 0 12 7 21 15 21 10 0
15 10 15 33 0 18 7 42 15 54 13 18 13 22 0 33 -9 8 -15 30 -15 56 0 32 -4 44
-15 44 -8 0 -15 9 -15 20 0 16 7 20 33 20 18 0 38 -5 45 -12z m-567 -348 c19
-11 19 -11 1 -48 -11 -20 -39 -88 -62 -150 -39 -101 -46 -112 -64 -106 -12 4
-22 7 -23 8 -1 1 22 62 51 136 29 74 56 143 59 153 7 20 12 21 38 7z m-161
-95 c0 -17 -7 -28 -22 -34 -13 -5 -41 -16 -63 -26 l-40 -17 63 -25 c52 -21 62
-29 62 -49 0 -13 -4 -24 -8 -24 -5 0 -51 18 -103 39 -77 33 -94 44 -94 61 0
18 17 29 90 60 109 46 115 47 115 15z m321 -20 c68 -28 84 -38 84 -55 0 -17
-18 -29 -94 -61 -52 -21 -98 -39 -103 -39 -5 0 -8 12 -6 26 2 22 13 30 63 49
l60 23 -40 17 c-22 10 -50 21 -62 26 -16 6 -23 17 -23 34 0 31 -3 31 121 -20z"/>
<path d="M1030 1895 c0 -16 6 -25 15 -25 9 0 15 9 15 25 0 16 -6 25 -15 25 -9
0 -15 -9 -15 -25z"/>
</g>
</svg>
